<svg height='300px' width='300px'  fill="#000000" xmlns="http://www.w3.org/2000/svg" xmlns:xlink="http://www.w3.org/1999/xlink" version="1.1" x="0px" y="0px" viewBox="0 0 72.676 69.186" enable-background="new 0 0 72.676 69.186" xml:space="preserve"><path d="M62.417,31.357v-4.702H14.973v4.702H0.012c0,0-0.427,8.122,3.847,11.968c4.69,4.222,11.114,5.984,11.114,5.984v2.992h8.369  c0.545,0.539,0.955,1.341,0.955,2.546c0,2.117-1.43,2.92-2.515,3.225h-6.809v11.113h47.444V58.072h-7.906  c0,0-1.069-11.327,7.906-17.738c3.698-2.643,10.259-3.848,10.259-3.848v-5.129H62.417z M30.058,23.797l11.587-2.356l-0.519-7.646  l22.501-3.5l-1.977-9.293L39.794,7.167l-2.406-6.889L25.802,2.635l1.15,10.788L30.058,23.797z M14.843,11.458l9.167,12h2.833  l-5.25-10.208l2.271,0.065L19.343,1.792l-7.5,0.333l5.167,9.167L14.843,11.458z M9.176,8.792L4.51,8.958l16.167,14L9.176,8.792z   M11.843,6.25L8.093,0H3.468l5.125,6.25H11.843z M15.843,23.458l-6.5-3.958l-1.688,3.958H15.843z"></path></svg>